<?xml version="1.0" encoding="utf-8"?>
<!-- Generator: Adobe Illustrator 22.0.1, SVG Export Plug-In . SVG Version: 6.00 Build 0)  -->
<svg version="1.1" id="Layer_1" xmlns="http://www.w3.org/2000/svg" xmlns:xlink="http://www.w3.org/1999/xlink" x="0px" y="0px"
	 viewBox="0 0 80.6 80.6" style="enable-background:new 0 0 80.6 80.6;" xml:space="preserve">
<path d="M52.4,37.6l-2,37.8c-0.1,1.3,0.4,2.6,1.3,3.5c0.9,1,2.1,1.5,3.5,1.5s2.5-0.5,3.5-1.5c0.9-0.9,1.4-2.1,1.3-3.4v-0.1l-2-37.7
	c6.6-1.7,11.6-9.3,11.6-18.4c0-10.4-6.4-18.8-14.3-18.8S41,8.9,41,19.3C41,28.2,45.9,35.8,52.4,37.6z M55.3,2.6
	c2.6,0,5.6,6.8,5.6,16.6S58,35.8,55.3,35.8s-5.6-6.8-5.6-16.6S52.7,2.6,55.3,2.6z M58.1,75.4L58.1,75.4c0,0.8-0.2,1.6-0.8,2.1
	c-1.1,1.1-3,1.1-4,0c-0.5-0.6-0.8-1.3-0.8-2l2-37.5c0.3,0,0.6,0.1,0.9,0.1c0.2,0,0.5,0,0.7,0L58.1,75.4z M67.7,19.2
	c0,7.3-3.4,13.5-8.2,15.8c2.3-3.5,3.5-9.8,3.5-15.8c0-6.1-1.2-12.3-3.5-15.8C64.2,5.7,67.7,11.9,67.7,19.2z M51.2,3.3
	c-2.3,3.5-3.5,9.8-3.5,15.8s1.2,12.3,3.5,15.8c-4.8-2.3-8.2-8.5-8.2-15.8C43,11.9,46.4,5.7,51.2,3.3z"/>
<path d="M21.4,37.6l-2,37.6c-0.1,1.3,0.4,2.6,1.3,3.5c0.9,1,2.1,1.5,3.5,1.5s2.5-0.5,3.5-1.5c0.9-0.9,1.4-2.1,1.3-3.4v-0.1l-2-37.6
	c5.9-1.3,10.3-6.6,10.3-12.9V1.4c0-0.6-0.4-1-1-1H12.2c-0.6,0-1,0.4-1,1v23.4C11.2,31.1,15.5,36.4,21.4,37.6z M27,75.4L27,75.4
	c0,0.8-0.2,1.6-0.8,2.1c-1.1,1.1-3,1.1-4,0c-0.5-0.6-0.8-1.3-0.8-2l2-37.5c0.3,0,0.6,0,0.8,0c0.3,0,0.6,0,0.8,0L27,75.4z M13.2,2.4
	h22.2v22.4c0,6.2-5,11.2-11.2,11.2S13,31,13,24.8V2.4H13.2z"/>
<path d="M17.9,26.1c0.6,0,1-0.4,1-1v-18c0-0.6-0.4-1-1-1s-1,0.4-1,1v18.1C16.9,25.7,17.2,26.1,17.9,26.1z"/>
<path d="M24.2,26.1c0.6,0,1-0.4,1-1v-18c0-0.6-0.4-1-1-1s-1,0.4-1,1v18.1C23.2,25.7,23.7,26.1,24.2,26.1z"/>
<path d="M30.7,26.1c0.6,0,1-0.4,1-1v-18c0-0.6-0.4-1-1-1s-1,0.4-1,1v18.1C29.7,25.7,30.2,26.1,30.7,26.1z"/>
</svg>
