<?xml version="1.0" encoding="utf-8"?>
<!-- Generator: Adobe Illustrator 22.0.1, SVG Export Plug-In . SVG Version: 6.00 Build 0)  -->
<svg version="1.1" id="Layer_1" xmlns="http://www.w3.org/2000/svg" xmlns:xlink="http://www.w3.org/1999/xlink" x="0px" y="0px"
	 viewBox="0 0 100 100" style="enable-background:new 0 0 100 100;" xml:space="preserve">
<path d="M62,47.2L60,85c-0.1,1.3,0.4,2.6,1.3,3.5c0.9,1,2.1,1.5,3.5,1.5s2.5-0.5,3.5-1.5c0.9-0.9,1.4-2.1,1.3-3.4V85l-2-37.7
	c6.6-1.7,11.6-9.3,11.6-18.4c0-10.4-6.4-18.8-14.3-18.8s-14.3,8.4-14.3,18.8C50.6,37.8,55.5,45.4,62,47.2z M64.9,12.2
	c2.6,0,5.6,6.8,5.6,16.6s-2.9,16.6-5.6,16.6s-5.6-6.8-5.6-16.6S62.3,12.2,64.9,12.2z M67.7,85L67.7,85c0,0.8-0.2,1.6-0.8,2.1
	c-1.1,1.1-3,1.1-4,0c-0.5-0.6-0.8-1.3-0.8-2l2-37.5c0.3,0,0.6,0.1,0.9,0.1c0.2,0,0.5,0,0.7,0L67.7,85z M77.3,28.8
	c0,7.3-3.4,13.5-8.2,15.8c2.3-3.5,3.5-9.8,3.5-15.8c0-6.1-1.2-12.3-3.5-15.8C73.8,15.3,77.3,21.5,77.3,28.8z M60.8,12.9
	c-2.3,3.5-3.5,9.8-3.5,15.8s1.2,12.3,3.5,15.8c-4.8-2.3-8.2-8.5-8.2-15.8C52.6,21.5,56,15.3,60.8,12.9z"/>
<path d="M31,47.2l-2,37.6c-0.1,1.3,0.4,2.6,1.3,3.5c0.9,1,2.1,1.5,3.5,1.5s2.5-0.5,3.5-1.5c0.9-0.9,1.4-2.1,1.3-3.4v-0.1l-2-37.6
	c5.9-1.3,10.3-6.6,10.3-12.9V11c0-0.6-0.4-1-1-1H21.8c-0.6,0-1,0.4-1,1v23.4C20.8,40.7,25.1,46,31,47.2z M36.6,85L36.6,85
	c0,0.8-0.2,1.6-0.8,2.1c-1.1,1.1-3,1.1-4,0c-0.5-0.6-0.8-1.3-0.8-2l2-37.5c0.3,0,0.6,0,0.8,0c0.3,0,0.6,0,0.8,0L36.6,85z M22.8,12
	H45v22.4c0,6.2-5,11.2-11.2,11.2s-11.2-5-11.2-11.2V12H22.8z"/>
<path d="M27.5,35.7c0.6,0,1-0.4,1-1v-18c0-0.6-0.4-1-1-1c-0.6,0-1,0.4-1,1v18.1C26.5,35.3,26.8,35.7,27.5,35.7z"/>
<path d="M33.8,35.7c0.6,0,1-0.4,1-1v-18c0-0.6-0.4-1-1-1s-1,0.4-1,1v18.1C32.8,35.3,33.3,35.7,33.8,35.7z"/>
<path d="M40.3,35.7c0.6,0,1-0.4,1-1v-18c0-0.6-0.4-1-1-1s-1,0.4-1,1v18.1C39.3,35.3,39.8,35.7,40.3,35.7z"/>
</svg>
